# xmcd
#
# Track frame offsets:
#	150
#	16910
#	34700
#	51474
#	66509
#	85859
#	100750
#	118537
#	134422
#	149075
#	164445
#	180829
#	196313
#
# Disc length: 2874 seconds
#
# Revision: 1
# Processed by: cddbd v1.5.2PL0 Copyright (c) Steve Scherf et al.
# Submitted via: audiograbber 1.83.01
#
DISCID=b60b380d
DTITLE=Various Artist - CDX 527
DYEAR=2011
DGENRE=Country
TTITLE0=Ronnie Dunn - Cost of Livin' 
TTITLE1=Keith Urban - Long Hot Summer 
TTITLE2=Alan Jackson - Long Way To Go
TTITLE3=Toby Keith - Made in America 
TTITLE4=Brad Paisley w. Carrie Underwood - Remind Me 
TTITLE5=Shania Twain - Today Is Your Day 
TTITLE6=Ricky Skaggs - Country Boy
TTITLE7=Point Of Grace - Hole In The World 
TTITLE8=Sawyer Brown - Smokin' Hot Wife
TTITLE9=Craig Morgan - This Ole Boy 
TTITLE10=Justin Haigh - All My Best Friends (Are Behind Bars)
TTITLE11=Ben Wasson - Don't Stop By The Creek Son 
TTITLE12=Marty McIntosh - The American Night
EXTD=
EXTT0=
EXTT1=
EXTT2=
EXTT3=
EXTT4=
EXTT5=
EXTT6=
EXTT7=
EXTT8=
EXTT9=
EXTT10=
EXTT11=
EXTT12=
PLAYORDER=
